<?xml version="1.0" encoding="utf-8"?>
<!-- Generator: Adobe Illustrator 23.0.0, SVG Export Plug-In . SVG Version: 6.00 Build 0)  -->
<svg version="1.1" id="Layer_1" xmlns="http://www.w3.org/2000/svg" xmlns:xlink="http://www.w3.org/1999/xlink" x="0px" y="0px"
	 viewBox="0 0 989.9 987.9" style="enable-background:new 0 0 989.9 987.9;" xml:space="preserve">
<style type="text/css">
	.st0{fill:#FFFFFF;}
	.st1{fill:#1D48FF;}
</style>
<title>personal dev logo v2</title>
<path class="st0" d="M727.6,390.1c13.9,32.5,21.1,67.5,21,102.8c0,142.3-113.4,257.8-253.7,257.8c-138.2,0-251.6-115.5-251.6-257.8
	c0-30.3,5.2-60.3,15.5-88.8L79.1,224.4C27.7,304.6,0,397.7,0,492.9c0,127.9,51.6,253.7,144.4,350.6
	c96.9,92.8,222.7,144.4,350.6,144.4c132,0,255.7-51.6,348.5-144.4c94.9-94.9,146.4-218.6,146.4-350.6c0.2-99.5-30-196.8-86.5-278.7
	L727.6,390.1z"/>
<path class="st1" d="M495,235.1c51.6,0,101.9,15.9,144.1,45.6l170.1-170.1C724.2,39.7,614.3,0,495,0c-115.2,0-224.2,39.3-313,109.7
	l170.8,170.9C394.3,251,444,235.1,495,235.1z"/>
</svg>
