<svg xmlns="http://www.w3.org/2000/svg" viewBox="0 0 989.94 987.89"><title>personal dev logo v2</title><path d="M747.7,406.07a260.38,260.38,0,0,1,21,102.84c0,142.31-113.43,257.81-253.67,257.81-138.18,0-251.61-115.5-251.61-257.81a261.45,261.45,0,0,1,15.46-88.8L99.18,240.39c-51.36,80.26-79.1,173.28-79.1,268.52,0,127.88,51.56,253.68,144.37,350.61,96.93,92.81,222.73,144.37,350.6,144.37,132,0,255.74-51.56,348.54-144.37C958.47,764.66,1010,640.91,1010,508.91a488.5,488.5,0,0,0-86.5-278.67Z" transform="translate(-20.08 -16.01)"/><path d="M515.05,251.12a249.69,249.69,0,0,1,144.08,45.62L829.27,126.6C744.24,55.66,634.41,16,515.05,16,399.82,16,290.89,55.31,202,125.66L372.83,296.54A245.9,245.9,0,0,1,515.05,251.12Z" transform="translate(-20.08 -16.01)" style="fill:#1d48ff"/></svg>