<svg xmlns="http://www.w3.org/2000/svg" width="617" height="699" stroke="none" stroke-linecap="round" stroke-linejoin="round" fill="#fff" fill-rule="nonzero">
    <path d="M56.082 628.9916L0 0h616.2159l-56.1251 628.904-252.3768 69.9287z" fill="#E34F26"/>
    <path d="M512.0201 588.8519l47.9801-537.4205H308.108v593.9638z" fill="#EF652A"/>
    <path d="M307.84582 128.56761h-193.1898l20.8112 233.2871h172.6391v-77.1376h-102.0762l-7.0515-78.9927h109.1277v-77.1568zm.2605 356.2408l-.3278.0876-85.9134-23.1943-5.4596-61.5185h-77.4845l10.8099 121.1176 158.0285 43.6817.3469-.1097z"/>
    <path d="M307.84555 361.85471h95.0017l-8.7374 100.0239-86.0442 23.2146v80.26l158.1592-43.8312 21.1844-236.8483h-179.2993zm191.3981-212.5825l1.8349-20.7046h-193.2763v77.1377h186.3316l1.5282-17.3405z"/>
</svg>