<?xml version="1.0" encoding="utf-8"?>
<!-- Generator: Adobe Illustrator 23.0.0, SVG Export Plug-In . SVG Version: 6.00 Build 0)  -->
<svg version="1.1" id="Layer_1" xmlns="http://www.w3.org/2000/svg" xmlns:xlink="http://www.w3.org/1999/xlink" x="0px" y="0px"
	 viewBox="0 0 800 800" style="enable-background:new 0 0 800 800;" xml:space="preserve">
<style type="text/css">
	.st0{fill-rule:evenodd;clip-rule:evenodd;fill:#6E81B6;}
	.st1{fill-rule:evenodd;clip-rule:evenodd;}
</style>
<path class="st0" d="M400,172L400,172c220.9,0,400,102.4,400,228.6v1.7C800,528.6,620.9,631,400,631h0C179.1,631,0,528.6,0,402.4
	v-1.7C0,274.4,179.1,172,400,172z"/>
<path class="st1" d="M251.5,346.6c15.6,0,26,2.9,31.2,8.6c5.2,5.8,6.4,15.6,3.7,29.6c-2.8,14.6-8.3,25-16.4,31.2s-20.4,9.3-36.9,9.3
	h-25l15.3-78.8h28.1V346.6z M151.5,505.2h41l9.7-50.1h35.1c15.5,0,28.3-1.6,38.3-4.9s19.1-8.7,27.3-16.4
	c6.9-6.3,12.4-13.3,16.7-20.9c4.3-7.6,7.3-16,9.1-25.2c4.3-22.3,1.1-39.7-9.8-52.2s-28.2-18.7-51.9-18.7h-78.9L151.5,505.2z
	 M358.9,266.9h40.7l-9.7,50.1h36.3c22.8,0,38.5,4,47.2,11.9c8.7,8,11.3,20.9,7.8,38.7l-17,87.6h-41.3l16.2-83.3
	c1.8-9.5,1.2-15.9-2-19.4c-3.2-3.4-10-5.2-20.4-5.2h-32.5l-21,107.9h-40.7L358.9,266.9z M571.6,346.6c15.6,0,26,2.9,31.2,8.6
	c5.2,5.8,6.4,15.6,3.7,29.6c-2.8,14.6-8.3,25-16.4,31.2c-8.1,6.2-20.4,9.3-36.9,9.3h-25l15.3-78.8h28.1V346.6z M471.7,505.2h41
	l9.7-50.1h35.1c15.5,0,28.3-1.6,38.3-4.9s19.1-8.7,27.3-16.4c6.9-6.3,12.4-13.3,16.7-20.9s7.3-16,9.1-25.2
	c4.3-22.3,1.1-39.7-9.8-52.2c-10.9-12.5-28.2-18.7-51.9-18.7h-78.9L471.7,505.2L471.7,505.2z"/>
</svg>
